<?xml version="1.0" encoding="utf-8"?>
<!-- Generator: Adobe Illustrator 26.5.0, SVG Export Plug-In . SVG Version: 6.00 Build 0)  -->
<svg version="1.1"
	 id="svg8" xmlns:rdf="http://www.w3.org/1999/02/22-rdf-syntax-ns#" xmlns:cc="http://creativecommons.org/ns#" xmlns:svg="http://www.w3.org/2000/svg" xmlns:sodipodi="http://sodipodi.sourceforge.net/DTD/sodipodi-0.dtd" xmlns:dc="http://purl.org/dc/elements/1.1/" xmlns:inkscape="http://www.inkscape.org/namespaces/inkscape"
	 xmlns="http://www.w3.org/2000/svg" xmlns:xlink="http://www.w3.org/1999/xlink" x="0px" y="0px" viewBox="0 0 200 160"
	 style="enable-background:new 0 0 200 160;" xml:space="preserve">
<style type="text/css">
	.st0{fill:#00CCFF;}
	.st1{fill:#FFFFFF;}
	.st2{fill:#2DDAE6;}
	.st3{fill:#FDFDFF;}
	.st4{fill:#F7AD1D;}
	.st5{fill:#221F20;}
	.st6{fill:#FAFBFD;}
	.st7{fill:#131412;}
</style>
<sodipodi:namedview  bordercolor="#666666" borderopacity="1.0" id="base" inkscape:current-layer="layer1" inkscape:cx="278.29821" inkscape:cy="82.703708" inkscape:document-units="mm" inkscape:guide-bbox="true" inkscape:pageopacity="0.0" inkscape:pageshadow="2" inkscape:window-height="705" inkscape:window-maximized="1" inkscape:window-width="1366" inkscape:window-x="0" inkscape:window-y="30" inkscape:zoom="0.98994949" pagecolor="#ffffff" showgrid="false" showguides="true">
	<sodipodi:guide  id="guide3724" inkscape:locked="false" orientation="0,1" position="67.351919,181.47601"></sodipodi:guide>
	<sodipodi:guide  id="guide3726" inkscape:locked="false" orientation="0,1" position="98.087914,109.31324"></sodipodi:guide>
	<sodipodi:guide  id="guide3728" inkscape:locked="false" orientation="1,0" position="0,32.606882"></sodipodi:guide>
	<sodipodi:guide  id="guide3730" inkscape:locked="false" orientation="1,0" position="99.958801,55.057522"></sodipodi:guide>
	<sodipodi:guide  id="guide3776" inkscape:locked="false" orientation="0,1" position="74.839284,167.82143"></sodipodi:guide>
	<sodipodi:guide  id="guide217" inkscape:locked="false" orientation="0,1" position="12.027129,65.213764"></sodipodi:guide>
	<sodipodi:guide  id="guide219" inkscape:locked="false" orientation="0,1" position="33.67596,79.913586"></sodipodi:guide>
	<sodipodi:guide  id="guide221" inkscape:locked="false" orientation="0,1" position="33.141421,0"></sodipodi:guide>
</sodipodi:namedview>
<rect id="rect3778" y="0" class="st0" width="200" height="160"/>
<rect id="rect3778_00000125590234991893940080000004471330711221218707_" x="5" y="29.8" width="190" height="125"/>
<g>
	<path class="st1" d="M78.6,123.9c0.3,0.3,0.4,0.6,0.4,1v12.8c0,1.5-0.3,2.8-1,4c-0.7,1.2-1.6,2.1-2.8,2.8c-1.2,0.7-2.5,1-3.9,1
		c-1.4,0-2.7-0.3-3.9-1c-1.2-0.7-2.1-1.6-2.8-2.8s-1-2.5-1-4s0.3-2.8,0.9-4c0.6-1.2,1.5-2.1,2.6-2.8c1.1-0.7,2.3-1,3.7-1
		c1.1,0,2.1,0.2,3,0.7c0.9,0.4,1.7,1.1,2.4,1.9V125c0-0.4,0.1-0.8,0.4-1c0.3-0.3,0.6-0.4,1-0.4C78,123.6,78.3,123.7,78.6,123.9z
		 M73.8,142.3c0.8-0.5,1.3-1.1,1.8-1.9c0.4-0.8,0.6-1.7,0.6-2.7s-0.2-1.9-0.6-2.7c-0.4-0.8-1-1.4-1.8-1.9s-1.6-0.7-2.5-0.7
		c-0.9,0-1.8,0.2-2.5,0.7c-0.8,0.5-1.4,1.1-1.8,1.9c-0.4,0.8-0.7,1.7-0.7,2.7s0.2,1.9,0.7,2.7c0.4,0.8,1,1.4,1.8,1.9
		c0.8,0.5,1.6,0.7,2.5,0.7C72.2,143,73.1,142.8,73.8,142.3z"/>
	<path class="st1" d="M87,144.5c-1.2-0.7-2.1-1.6-2.7-2.8c-0.7-1.2-1-2.5-1-4c0-1.5,0.3-2.9,1-4c0.7-1.2,1.6-2.1,2.7-2.8
		c1.2-0.7,2.5-1,4-1c1.5,0,2.8,0.3,4,1c1.2,0.7,2.1,1.6,2.7,2.8c0.7,1.2,1,2.5,1,4c0,1.5-0.3,2.8-1,4c-0.7,1.2-1.6,2.1-2.7,2.8
		c-1.2,0.7-2.5,1-4,1C89.5,145.5,88.1,145.2,87,144.5z M93.5,142.3c0.8-0.4,1.3-1.1,1.8-1.9c0.4-0.8,0.6-1.7,0.6-2.7
		s-0.2-1.9-0.6-2.7c-0.4-0.8-1-1.4-1.8-1.9c-0.8-0.4-1.6-0.7-2.6-0.7s-1.8,0.2-2.6,0.7c-0.8,0.4-1.3,1.1-1.8,1.9
		c-0.4,0.8-0.6,1.7-0.6,2.7s0.2,1.9,0.6,2.7c0.4,0.8,1,1.4,1.8,1.9c0.8,0.4,1.6,0.7,2.6,0.7S92.8,142.8,93.5,142.3z"/>
	<path class="st1" d="M113.8,131c1.2,0.7,2.1,1.6,2.7,2.8c0.7,1.2,1,2.5,1,4v6c0,1.5-0.3,2.8-1,4c-0.7,1.2-1.6,2.2-2.8,2.9
		c-1.2,0.7-2.5,1.1-4,1.1c-1.3,0-2.6-0.3-3.8-0.8c-1.2-0.5-2.1-1.3-2.9-2.3c-0.2-0.3-0.3-0.5-0.3-0.8c0-0.4,0.2-0.7,0.6-1
		c0.3-0.2,0.5-0.3,0.8-0.3c0.5,0,0.8,0.2,1.1,0.6c0.5,0.7,1.1,1.2,1.9,1.5c0.8,0.3,1.6,0.5,2.6,0.5c0.9,0,1.7-0.2,2.5-0.7
		c0.7-0.4,1.3-1.1,1.8-1.9c0.4-0.8,0.7-1.9,0.7-3v-1.4c-0.6,1-1.3,1.8-2.3,2.4c-1,0.6-2,0.9-3.2,0.9c-1.4,0-2.6-0.3-3.7-1
		c-1.1-0.7-1.9-1.6-2.5-2.8c-0.6-1.2-0.9-2.5-0.9-4c0-1.5,0.3-2.9,1-4c0.7-1.2,1.6-2.1,2.7-2.8c1.2-0.7,2.5-1,4-1
		C111.3,130,112.7,130.3,113.8,131z M112.4,142.3c0.8-0.4,1.3-1.1,1.8-1.9c0.4-0.8,0.6-1.7,0.6-2.7s-0.2-1.9-0.6-2.7
		c-0.4-0.8-1-1.4-1.8-1.9c-0.8-0.4-1.6-0.7-2.6-0.7c-1,0-1.8,0.2-2.6,0.7c-0.8,0.4-1.3,1.1-1.8,1.9c-0.4,0.8-0.6,1.7-0.6,2.7
		s0.2,1.9,0.6,2.7c0.4,0.8,1,1.4,1.8,1.9c0.8,0.4,1.6,0.7,2.6,0.7C110.8,143,111.7,142.8,112.4,142.3z"/>
	<path class="st1" d="M124.8,144.5c-1.2-0.7-2.1-1.6-2.7-2.8c-0.7-1.2-1-2.5-1-4c0-1.5,0.3-2.9,1-4c0.7-1.2,1.6-2.1,2.7-2.8
		c1.2-0.7,2.5-1,4-1c1.5,0,2.8,0.3,4,1c1.2,0.7,2.1,1.6,2.7,2.8c0.7,1.2,1,2.5,1,4c0,1.5-0.3,2.8-1,4c-0.7,1.2-1.6,2.1-2.7,2.8
		c-1.2,0.7-2.5,1-4,1C127.3,145.5,125.9,145.2,124.8,144.5z M131.3,142.3c0.8-0.4,1.3-1.1,1.8-1.9c0.4-0.8,0.6-1.7,0.6-2.7
		s-0.2-1.9-0.6-2.7c-0.4-0.8-1-1.4-1.8-1.9c-0.8-0.4-1.6-0.7-2.6-0.7c-1,0-1.8,0.2-2.6,0.7c-0.8,0.4-1.3,1.1-1.8,1.9
		c-0.4,0.8-0.6,1.7-0.6,2.7s0.2,1.9,0.6,2.7c0.4,0.8,1,1.4,1.8,1.9c0.8,0.4,1.6,0.7,2.6,0.7C129.7,143,130.6,142.8,131.3,142.3z"/>
</g>
<g>
	<g id="Outline">
		<path class="st1" d="M143.7,54.6c-2.1,0.6-4.1,1.3-6,2.4c-2.1,1.3-3.3,2.9-4.3,5.1c1.8,0.1,3.7,0.1,5.5,0.2
			c-0.4-4.5-3.4-7.2-7-9.5c-4.1-2.6-8.5-4.8-13.1-6.4c-1.4-0.5-4.3,0.1-4.1,2.1c0.7,5,1.5,10,4.4,14.2c2.6,3.7,6.5,6.4,10.8,7.8
			c-0.4-0.9-0.8-1.9-1.2-2.8c-1.2,1.7-2.7,3.2-4.6,4c-0.3,0.1-0.6,0.2-1,0.3c-0.5,0.1-0.6,0.1-0.2,0.1c-0.3,0-0.6,0.1-0.9,0.1
			c-0.3,0-1.3,0.2-0.3,0.1c-0.7,0.1-1.5,0.2-2.2,0.2c-0.8,0.1,0.3,0.1-0.2,0c-0.2,0-0.4,0-0.6,0c-0.3,0-0.5-0.1-0.8-0.1
			c-0.1,0-0.3-0.1-0.4-0.1c0.3,0.1,0.3,0.1,0.1,0c-7.3-2-11.9-9.8-16.3-15.7c-0.1,0.9-0.2,1.7-0.3,2.6c2.4-2.7,5.5-8.3,2.2-11.4
			c-3.6-3.4-9.4-1.4-13.2,0.6c1.1,0,2.3,0.1,3.4,0.1c-5.9-3.5-12.9-4.6-19.6-4.1c-5.1,0.3-10,1.5-14.4,4.1c1.1,0,2.3,0.1,3.4,0.1
			c-3.7-2.3-9.4-5-12.9-0.7c-2.7,3.3-1.7,8.6-0.1,12.1c0.1-0.5,0.1-1.1,0.2-1.6c-7.3,13.4-4.6,30.8,7.4,40.4
			c0.1-1.1,0.2-2.2,0.3-3.3c-3.2,1.6-6.2,4.3-8.2,7.3c-2,3.1-2.9,6.7-3.5,10.2c-0.4,2.1,2,2.6,3.6,2.3c8.1-1.6,15.7-5.4,20.6-12.2
			c-1.3,0.3-2.5,0.7-3.8,1c5.2,2.4,10.8,4.1,16.4,4.9c-0.6-0.3-1.2-0.6-1.7-0.8c4.9,6.3,12.8,9.6,20.4,11.1c1.2,0.2,3.7-0.6,3.4-2.3
			c-0.7-3.9-1.8-7.7-4-11c-0.7,1.1-1.5,2.2-2.2,3.3c5.8-0.5,11.5-1.8,16.6-4.5c7.2-3.7,12.9-9.7,17.3-16.5
			c3.6-5.6,6.3-11.7,8.6-17.9c-0.9,0.6-1.7,1.2-2.6,1.7c5,0,10-1.7,13.9-4.8c4.1-3.2,6.3-7.9,8.4-12.6c0.8-1.7-1.8-2.5-2.9-2.5
			C153.3,52.5,148.4,53.3,143.7,54.6c-1.1,0.3-2.3,1.5-1.8,2.7c0.6,1.3,2.3,1.5,3.5,1.2c4.3-1.2,8.7-1.9,13.1-2.2
			c-1-0.8-1.9-1.6-2.9-2.5c-1.7,3.7-3.5,7.7-6.7,10.3c-2.9,2.4-6.6,3.6-10.4,3.6c-1.1,0-2.2,0.7-2.6,1.7
			c-3.3,9.1-7.7,18.2-14.7,25.1c-2.5,2.4-4.9,4.4-7.7,6c-1.3,0.7-2.6,1.3-3.9,1.9c-0.7,0.3,0.3-0.1-0.1,0c-0.2,0.1-0.4,0.1-0.5,0.2
			c-0.3,0.1-0.6,0.2-0.9,0.3c-0.7,0.2-1.3,0.4-2,0.6c-0.7,0.2-1.4,0.4-2.2,0.5c-0.3,0.1-0.7,0.1-1,0.2c-0.8,0.1,0.3,0-0.4,0.1
			c-1.3,0.2-2.6,0.4-3.9,0.5c-1.8,0.1-3.3,1.6-2.2,3.3c1.8,2.7,2.5,5.9,3.1,9c1.1-0.8,2.3-1.5,3.4-2.3c-5.9-1.1-11.7-3.7-15.8-8.1
			c-0.4-0.4-0.7-0.9-1.1-1.2c-0.8-0.8-1.8-0.8-2.8-1c-1.6-0.2-3.1-0.6-4.6-1c-3.2-0.9-6.4-2-9.4-3.4c-1.2-0.6-3,0-3.8,1
			c-4.2,5.7-10.7,8.7-17.4,10c1.2,0.8,2.4,1.6,3.6,2.3c0.5-3,1.2-6.1,2.8-8.8c1.5-2.5,3.9-4.7,6.6-6.1c1.5-0.8,1.6-2.3,0.3-3.3
			c-5.5-4.4-8.7-11.2-9.5-18.2c-0.4-3.4-0.2-6.8,0.6-10.2c0.4-1.7,0.9-3.4,1.6-5c0.3-0.7,0.6-1.3,0.9-1.9c0.7-1.4-0.1-2.2-0.5-3.6
			c-0.6-1.9-1-4.6,0-6.4c0-0.1,0.4-0.6,0.3-0.5c0.1,0,0.9,0.3,1.1,0.4c1.1,0.5,2.2,1.1,3.3,1.7c1,0.6,2.4,0.7,3.4,0.1
			c0.8-0.5,1.5-0.9,2.3-1.3c0.2-0.1,0.4-0.2,0.7-0.3c0.7-0.3-0.1,0,0.3-0.1c1.3-0.5,2.6-0.8,4-1.1c3.2-0.6,7.3-0.8,10.9-0.3
			c2,0.3,3.9,0.7,5.8,1.5c1,0.4,1.8,0.8,2.7,1.3c1.6,0.9,2.8,0.8,4.4,0c1-0.5,4.4-2.2,5.2-0.8c0.5,0.8-0.3,2.3-0.6,3.1
			c-0.4,1-0.9,2-1.6,2.8c-0.7,0.8-0.9,1.7-0.3,2.6c4.6,6.1,8.8,12.8,15.9,16.1c3.6,1.7,7.3,1.8,11.1,1c0.1,0,0.4-0.1-0.1,0
			c-0.7,0.1,0.6-0.1,0.7-0.1c0.5-0.1,1-0.2,1.5-0.4c1-0.4,2-0.8,3-1.4c2-1.2,3.7-2.9,5-4.8c0.8-1.1-0.1-2.4-1.2-2.8
			c-3.5-1.1-6.6-3.4-8.7-6.4c-2.4-3.6-2.9-8-3.5-12.1c-1.4,0.7-2.7,1.4-4.1,2.1c3.9,1.4,7.6,3.2,11.1,5.3c2.9,1.8,5.6,3.6,6,7.2
			c0.3,2.8,4.7,2.2,5.5,0.2c1.2-2.7,3.9-3.6,6.6-4.3c1.1-0.3,2.3-1.4,1.8-2.7C146.6,54.6,144.8,54.3,143.7,54.6z"/>
	</g>
	<g>
		<path class="st2" d="M144.5,56.6c-2.6,0.7-5.7,1.8-7.4,4c-0.4,0.6-0.7,1.2-1,1.9c-0.1-0.8-0.2-1.6-0.4-2.3
			c-0.9-2.6-3.6-4.5-5.8-5.9c-3.9-2.5-8-4.5-12.4-6c0.5,3.6,1,7.3,2.5,10.6c2.1,4.7,6.3,8.2,11.2,9.7c-0.4,0.6-0.8,1.1-1.4,1.8
			c-1.7,1.9-4,3.4-6.6,3.8c-3.1,0.5-9.7,2.6-19.4-9.9c-1.6-2.1-3.1-4.3-4.7-6.5c1.3-1.4,2.1-3.2,2.7-5.1c0.2-0.8,0.4-1.6,0.2-2.4
			c-0.3-1.1-1.3-1.9-2.4-2.2c-1.1-0.3-2.3-0.1-3.4,0.2c-1.5,0.4-3,1-4.4,1.7c-10.2-6.2-25.2-3.3-28.6-1c-0.7,0.3-1.3,0.7-1.9,1.1
			c-0.9-0.6-2.1-1.1-2.7-1.4c-1.4-0.8-3.1-1.5-4.7-0.9c-1.6,0.7-2.3,2.6-2.4,4.3c-0.2,2.4,0.3,4.9,1.4,7
			c-6.4,11.6-4.9,28.6,6.8,37.9c-1.3,0.6-2.4,1.5-3.5,2.4c-1.2,1-2.3,2.1-3.2,3.3c-2.2,3-3.2,6.8-3.8,10.5c4.5-0.8,8.8-2.4,12.6-4.9
			c2.2-1.4,4.1-3.2,5.8-5.3c0.2-0.3,0.5-0.6,0.7-0.9c5,2.4,10.3,3.9,15.8,4.7c0,0,0,0,0,0c1.7,2,3.6,3.8,5.8,5.3
			c3.8,2.5,8.3,4.1,12.8,4.9c-0.6-3.5-1.5-7.1-3.5-10c11.5-0.9,28.5-5.5,39.9-37.2c5.3,0.1,10.7-2.2,14.2-6.2c2.4-2.7,4-6.1,5.5-9.5
			C153.7,54.5,149.1,55.3,144.5,56.6z"/>
		<g>
			<path d="M144.4,56.2c-1.8,0.5-3.6,1.1-5.3,2.1c-0.8,0.4-1.5,1-2.1,1.6c-0.8,0.8-1.2,1.7-1.7,2.8c0.5-0.1,1.1-0.2,1.6-0.3
				c-0.1-1.6-0.6-3-1.5-4.3c-0.9-1.1-2-2.1-3.1-2.9c-2.7-1.9-5.6-3.5-8.6-4.9c-1.8-0.8-3.7-1.6-5.5-2.3c-0.4-0.1-1.5,0-1.5,0.6
				c0.5,3.8,1,7.7,2.7,11.1c1.4,2.9,3.6,5.3,6.3,7.1c1.5,1,3.2,1.8,4.9,2.3c-0.1-0.2-0.2-0.3-0.3-0.5c-1.8,2.6-4.3,4.6-7.5,5.2
				c-0.5,0.1-1,0.2-1.6,0.3c-0.3,0-0.6,0.1-0.9,0.1c-0.1,0-0.2,0-0.2,0c-0.1,0,0.1,0-0.1,0c-0.2,0-0.4,0-0.5,0
				c-4.4,0-8.4-2.9-11.4-6c-3.2-3.2-5.7-7-8.4-10.6c0,0.2-0.1,0.3-0.1,0.5c1.2-1.3,2-2.9,2.6-4.6c0.5-1.6,0.9-3.4-0.5-4.7
				c-1.4-1.2-3.3-1.2-5-0.9c-2,0.4-3.9,1.1-5.6,2.1c0.4,0,0.8-0.1,1.2-0.1c-4.2-2.6-9.2-3.6-14.2-3.8c-4.1-0.1-8.4,0.3-12.3,1.5
				c-1.9,0.6-3.6,1.5-5.2,2.5c0.4,0,0.8-0.1,1.2-0.1c-0.8-0.5-1.6-0.9-2.5-1.3c-0.9-0.4-1.7-0.9-2.7-1.1c-1.8-0.4-3.7,0-4.9,1.4
				c-1,1.3-1.3,3.1-1.3,4.7c0,2.1,0.5,4.1,1.4,6c0-0.1,0-0.2,0.1-0.2c-2.6,4.7-3.8,10-3.8,15.4c0,5.5,1.4,10.9,4.3,15.7
				c1.7,2.8,3.8,5.2,6.3,7.2c0.1-0.2,0.3-0.4,0.4-0.7c-1.6,0.8-3.1,1.9-4.4,3.1c-1.3,1.1-2.5,2.4-3.4,3.9c-1.8,2.9-2.7,6.3-3.3,9.7
				c-0.1,0.4,0.5,0.4,0.7,0.4c7.7-1.5,15.2-5,19.9-11.5c-0.5,0.1-0.9,0.3-1.4,0.4c4.7,2.2,9.6,3.8,14.7,4.6c0.3,0.1,0.7,0.1,1,0.2
				c0,0,0-0.1,0-0.1c0,0,0.1,0.1,0.1,0.1c0.1,0.1,0.2,0.2,0.3,0.4c0.4,0.5,0.8,0.9,1.3,1.4c0.9,0.9,1.8,1.7,2.8,2.4
				c1.9,1.5,4,2.7,6.3,3.6c2.6,1.1,5.4,1.9,8.1,2.4c0.4,0.1,1.4-0.1,1.3-0.7c-0.6-3.5-1.6-7.1-3.6-10.1c-0.3,0.3-0.6,0.5-0.9,0.8
				c5.5-0.4,11-1.8,15.9-4.3c7-3.6,12.5-9.5,16.7-16.1c3.4-5.4,6.1-11.3,8.3-17.3c-0.4,0.2-0.7,0.4-1.1,0.6c3.6,0,7.2-0.9,10.3-2.6
				c3.2-1.8,5.7-4.5,7.5-7.6c1.1-1.9,2-3.9,2.9-5.9c0.2-0.5-0.3-0.5-0.7-0.5C153.7,54.1,149,54.9,144.4,56.2
				c-0.2,0.1-0.8,0.3-0.7,0.6c0.1,0.3,0.7,0.3,0.9,0.2c4.5-1.2,9-2,13.6-2.3c-0.2-0.2-0.4-0.3-0.7-0.5c-1.4,3.2-2.9,6.5-5.2,9.2
				c-2.1,2.5-4.9,4.3-8,5.2c-1.7,0.5-3.6,0.8-5.4,0.8c-0.4,0-1,0.2-1.1,0.6c-3.4,9.4-8,18.7-15.1,25.8c-4.5,4.5-10,7.8-15.9,9.5
				c-2.6,0.7-5.2,1.1-8,1.3c-0.3,0-1.2,0.3-0.9,0.8c2,2.9,2.9,6.4,3.5,9.9c0.4-0.2,0.9-0.4,1.3-0.7c-4.8-0.9-9.6-2.6-13.6-5.6
				c-1-0.7-1.9-1.5-2.7-2.3c-0.4-0.4-0.8-0.8-1.2-1.2c-0.3-0.3-0.7-1-1.1-1.1c-0.6-0.2-1.2-0.2-1.8-0.3c-0.7-0.1-1.3-0.2-2-0.4
				c-1.2-0.3-2.5-0.6-3.7-0.9c-2.8-0.8-5.5-1.8-8.1-3.1c-0.4-0.2-1.1,0-1.4,0.4c-4.3,5.9-11.1,9.3-18.2,10.6
				c0.2,0.1,0.5,0.2,0.7,0.4c0.6-3.1,1.3-6.3,2.9-9.1c0.8-1.4,1.9-2.6,3.1-3.7c1.2-1.1,2.5-2.2,4-2.9c0.2-0.1,0.7-0.4,0.4-0.7
				c-6-4.8-9.6-12-10.3-19.6c-0.4-3.7-0.1-7.4,0.8-11c0.4-1.8,1-3.5,1.8-5.1c0.2-0.4,0.4-0.8,0.6-1.1c0.1-0.2,0.2-0.4,0.3-0.6
				c0.2-0.4,0.2-0.4,0-0.8c-0.5-1.1-0.9-2.3-1.1-3.6c-0.2-1.3-0.2-2.6,0-3.9c0.2-1,0.6-2.1,1.4-2.7c1-0.8,2.4-0.1,3.4,0.4
				c1.1,0.5,2.3,1.1,3.4,1.8c0.3,0.2,0.9,0,1.2-0.1c0.7-0.4,1.5-0.8,2.2-1.2c0.2-0.1,0.5-0.3,0.9-0.4c0.9-0.4,1.8-0.7,2.9-0.9
				c2.8-0.7,5.6-1,8.5-1c3.3,0,6.7,0.4,9.9,1.4c1.6,0.5,3.2,1.2,4.7,2.1c0.4,0.3,0.8,0.4,1.3,0.2c0.5-0.2,1-0.5,1.5-0.7
				c1-0.4,2-0.7,3-1c1.1-0.3,2.3-0.3,3.3,0.3c1,0.5,1.5,1.5,1.4,2.6c-0.1,1.1-0.6,2.2-1,3.3c-0.4,1-1,2-1.8,2.9
				c-0.1,0.1-0.2,0.3-0.1,0.5c4.3,5.7,8.2,12.3,14.9,15.5c1.7,0.8,3.6,1.4,5.6,1.4c1.3,0,2.6-0.2,3.9-0.4c1.7-0.3,3.3-0.8,4.8-1.8
				c1.8-1.1,3.3-2.6,4.4-4.3c0.2-0.2,0-0.4-0.3-0.5c-3-0.9-5.7-2.6-7.8-4.9c-2.3-2.5-3.7-5.6-4.5-8.9c-0.5-2.1-0.8-4.2-1-6.3
				c-0.5,0.2-1,0.4-1.5,0.6c3.2,1.1,6.3,2.5,9.3,4.2c2.6,1.4,5.4,3,7.3,5.2c1.2,1.4,1.7,2.9,1.9,4.7c0,0.3,0.6,0.3,0.8,0.2
				c0.3-0.1,0.7-0.2,0.8-0.5c0.7-1.7,1.7-2.9,3.3-3.8c1.4-0.8,2.9-1.2,4.4-1.6c0.2-0.1,0.8-0.3,0.7-0.6
				C145.3,56,144.7,56.1,144.4,56.2z"/>
		</g>
	</g>
	<g>
		<path class="st3" d="M54.6,66.5c-2.8,10.1,6.3,15.4,11.7,9.2C74.7,65,59.4,52.4,54.6,66.5z"/>
		<g>
			<path d="M54.2,66.6c-1,3.8-0.6,8.5,2.8,10.9c1.3,0.9,3,1.3,4.5,1.2c1.8-0.2,3.5-1.1,4.7-2.5c1.4-1.4,2.3-3.4,2.7-5.3
				c0.3-1.6,0.2-3.4-0.3-5c-0.9-2.8-3.2-5.3-6.2-5.8c-1.4-0.3-2.9,0-4.1,0.7c-1.6,0.9-2.7,2.5-3.5,4.1C54.6,65.4,54.4,66,54.2,66.6
				c-0.1,0.4,0.7,0.3,0.8,0c1-2.8,3-6.1,6.4-6c2.7,0.1,5,2.2,6.1,4.5c1.5,3.1,1,6.6-0.8,9.5c-0.9,1.5-2.3,2.8-4,3.3
				c-1.4,0.4-2.9,0.3-4.2-0.4c-3.4-1.7-4.3-5.8-3.8-9.2c0.1-0.6,0.2-1.1,0.4-1.7C55.1,66.1,54.3,66.2,54.2,66.6z"/>
		</g>
	</g>
	<g>
		<path class="st3" d="M75.2,68.1C74.5,80.9,90,84.3,91.4,70.8C91.8,59.4,76.3,55.1,75.2,68.1z"/>
		<g>
			<path d="M74.8,68.2c-0.2,4,1.2,8.3,4.9,10.4c3,1.7,6.8,1.5,9.3-1c1.5-1.5,2.3-3.5,2.7-5.6c0.4-2.1,0.1-4.4-0.8-6.4
				c-1.5-3.2-4.7-5.7-8.3-5.8c-1.7,0-3.3,0.5-4.6,1.5c-1.5,1.3-2.4,3.1-2.8,5C75,67,74.9,67.6,74.8,68.2c0,0.4,0.8,0.3,0.8-0.1
				c0.2-2,0.7-4,2-5.6c1-1.1,2.3-1.9,3.8-2c3.3-0.4,6.4,1.7,8,4.4c1,1.6,1.5,3.6,1.5,5.5c0,1.1-0.2,2.3-0.6,3.4
				c-0.3,0.9-0.7,1.8-1.2,2.6c-0.9,1.3-2.2,2.3-3.7,2.6c-1.4,0.4-2.9,0.2-4.3-0.4c-3.4-1.5-5.3-5.2-5.5-8.7c0-0.6,0-1.1,0-1.7
				C75.7,67.7,74.9,67.8,74.8,68.2z"/>
		</g>
	</g>
	<g>
		<path class="st4" d="M74.2,78.2c-1.4-0.3-3-0.2-4.4,0.2c-0.8,0.2-1.5,0.7-2.2,1.2c-0.7,0.5-1.2,1.4-1.1,2.4c0,0.9,0.6,1.7,1.2,2.2
			c0.7,0.5,1.4,0.7,2.2,0.7c2.1,0.3,4,0.2,6-0.2c0.6-0.1,1.5-0.6,1.9-1.2c0.7-1,0.2-2.5-0.4-3.3C76.6,79.1,75.5,78.4,74.2,78.2z"/>
		<g>
			<path d="M74.3,77.9c-1.2-0.2-2.4-0.2-3.6,0c-1.2,0.2-2.2,0.6-3.1,1.3c-0.8,0.6-1.5,1.5-1.6,2.6c-0.1,1,0.4,1.9,1.2,2.5
				c0.9,0.7,2.1,0.9,3.2,1c1.2,0.1,2.4,0.1,3.6,0c1.1-0.1,2.2-0.3,3.1-0.8c0.8-0.5,1.4-1.2,1.4-2.3C78.5,80,76.5,78.2,74.3,77.9
				c-0.4-0.1-0.8,0.5-0.3,0.6c1.6,0.3,3.1,1.5,3.6,3.2c0.2,0.8,0.2,1.6-0.5,2.2c-0.7,0.6-1.6,0.7-2.5,0.9c-1,0.1-2,0.2-3.1,0.1
				c-0.9-0.1-2-0.1-2.8-0.5c-0.8-0.3-1.5-1-1.7-1.9c-0.2-0.9,0.1-1.9,0.8-2.5c1.7-1.6,4.1-1.8,6.3-1.5
				C74.5,78.5,74.9,77.9,74.3,77.9z"/>
		</g>
	</g>
	<path class="st5" d="M70.7,77.7c-0.7,0.5-1.2,1.6-0.9,2.6c0,0.2,0.1,0.4,0.2,0.5c0.1,0.1,0.2,0.2,0.4,0.3c1.3,0.8,2.8,0.7,4.2,0.3
		c0.2-0.1,0.3-0.1,0.5-0.2c0.5-0.3,0.7-1.2,0.6-1.8s-0.6-1.2-1.1-1.6C73.4,77.1,71.7,76.9,70.7,77.7z"/>
	<g>
		<path class="st6" d="M70.2,84.5c-0.5,0.1-0.8,0.4-0.7,1.4c0,0.4,0,0.9,0,1.3c0,0.4,0.1,1,0.5,1c1.3,0,2.6,0.1,3.8,0.1
			c0.5,0,1-0.4,1.2-0.9c0.2-0.6,0.2-1.4,0-2.1c-0.3-0.8-1.1-0.8-1.4-0.8C72.9,84.4,70.5,84.4,70.2,84.5z"/>
		<g>
			<path d="M70.1,84.2c-0.5,0.1-0.9,0.4-1,0.9c-0.1,0.3-0.1,0.7-0.1,1c0,0.4,0,0.8,0,1.3c0,0.3,0.1,0.6,0.3,0.8
				c0.3,0.3,0.7,0.2,1,0.2c0.9,0,1.8,0,2.7,0.1c0.4,0,0.8,0.1,1.2-0.1c0.3-0.1,0.6-0.3,0.8-0.6c0.5-0.6,0.6-1.4,0.5-2.1
				c-0.1-0.7-0.3-1.2-1-1.5c-0.4-0.1-0.8-0.1-1.2-0.1c-0.6,0-1.2,0-1.9,0C71,84.2,70.6,84.2,70.1,84.2c-0.1,0-0.4,0.2-0.3,0.4
				c0.1,0.2,0.3,0.2,0.5,0.1c-0.2,0,0,0,0,0c0.1,0,0.1,0,0.2,0c0.2,0,0.4,0,0.6,0c0.4,0,0.9,0,1.3,0c0.4,0,0.7,0,1.1,0
				c0.3,0,0.6,0,0.9,0.3c0.4,0.4,0.4,1.2,0.4,1.7c0,0.4-0.2,1.2-0.8,1.3c-0.3,0.1-0.7,0-1,0c-0.4,0-0.7,0-1.1,0s-0.7,0-1.1,0
				c-0.3,0-0.7,0.1-0.8-0.2c-0.1-0.2-0.1-0.5-0.1-0.8c0-0.4,0-0.8,0-1.3c0-0.2,0-0.5,0.1-0.7c0.1-0.2,0.1-0.2,0.3-0.2
				c0.1,0,0.4-0.2,0.3-0.4C70.5,84.2,70.2,84.2,70.1,84.2z"/>
		</g>
	</g>
	<g>
		<g>
			<path class="st7" d="M58.4,68.2c-1.4,0.5-1.6,2.8-1.5,3.3c0.1,0.5,0.1,1,0.3,1.5c0.2,0.4,0.5,0.7,0.8,1c0.2,0.2,0.4,0.4,0.7,0.6
				c0.4,0.2,0.8,0.3,1.1,0.2c1-0.1,1.9-0.6,2.5-1.5s0.7-2.1,0.4-3.2C62.1,68.1,60,67.6,58.4,68.2z"/>
			<ellipse class="st1" cx="59.1" cy="70" rx="1.1" ry="1.2"/>
		</g>
		<g>
			<path class="st7" d="M79.7,68.9c-1.5,1.2-1.7,4.1-0.5,5.8c1.2,1.6,4.6,1.9,5.5-1.4C85.5,69,81.3,67.5,79.7,68.9z"/>
			<ellipse class="st1" cx="80.2" cy="71" rx="1" ry="1.1"/>
		</g>
	</g>
</g>
</svg>
