<?xml version="1.0" encoding="utf-8"?>
<!-- Generator: Adobe Illustrator 27.2.0, SVG Export Plug-In . SVG Version: 6.00 Build 0)  -->
<svg version="1.1" id="Wal" xmlns="http://www.w3.org/2000/svg" xmlns:xlink="http://www.w3.org/1999/xlink" x="0px" y="0px"
	 viewBox="0 0 420 420" style="enable-background:new 0 0 420 420;" xml:space="preserve">
<style type="text/css">
	.st0{fill:#2DDAE6;}
	.st1{fill:#FDFDFF;}
	.st2{fill:#F7AD1D;}
	.st3{fill:#221F20;}
	.st4{fill:#FAFBFD;}
	.st5{fill:#131412;}
	.st6{fill:#FFFFFF;}
</style>
<g id="Body">
	<g>
		<path class="st0" d="M355.7,120.1c-9.2,2.6-20.5,6.3-26.4,14.4c-1.4,2-2.6,4.4-3.6,6.8c-0.2-2.9-0.7-5.8-1.6-8.3
			c-3.2-9.4-12.9-16-20.7-21c-13.9-8.8-28.7-16-44.2-21.5c1.7,12.9,3.4,26,8.8,37.8c7.6,16.6,22.6,29.3,39.9,34.7
			c-1.3,2-3,4-5.1,6.4c-6.2,6.9-14.4,12-23.6,13.5c-11.2,1.9-34.6,9.2-69.2-35.2c-5.7-7.6-11.2-15.5-16.9-23.1
			c4.6-4.8,7.5-11.5,9.5-18.1c0.8-2.8,1.5-5.7,0.8-8.5c-1-4-4.7-6.9-8.7-7.9c-4-1-8.2-0.4-12.2,0.6c-5.3,1.3-10.7,3.4-15.8,6.1
			C130.3,74.5,77,85,64.6,93.1c-2.4,1.1-4.7,2.4-6.9,3.8c-3.3-2.2-7.5-4-9.7-5.1c-5.2-2.7-11.2-5.4-16.6-3.2
			c-5.8,2.3-8.2,9.2-8.7,15.4c-0.7,8.6,1,17.4,4.9,25.1C4.7,170.6,10,231.3,51.8,264.6c-4.5,2.2-8.6,5.2-12.5,8.5
			c-4.2,3.6-8.3,7.5-11.6,11.9c-8,10.7-11.4,24.2-13.7,37.4c15.9-3,31.5-8.6,45-17.6c7.7-5.2,14.8-11.5,20.6-18.8
			c0.8-1,1.6-2.1,2.4-3.2c17.7,8.4,36.8,14.1,56.3,16.8c0,0,0,0,0.1,0.1c5.9,7.3,13,13.6,20.9,18.8c13.7,9,29.5,14.6,45.6,17.6
			c-2.2-12.5-5.5-25.3-12.7-35.7c41.1-3.2,101.8-19.7,142.6-132.7c19,0.2,38.1-7.9,50.7-22.1c8.7-9.8,14.2-21.9,19.6-33.8
			C388.4,112.7,371.8,115.5,355.7,120.1z"/>
		<g>
			<path d="M355.3,118.6c-6.5,1.8-13,3.9-18.9,7.3c-2.8,1.6-5.4,3.5-7.6,5.9c-2.7,2.9-4.5,6.2-6,9.8c1.9-0.4,3.9-0.8,5.8-1.1
				c-0.5-5.7-2-10.8-5.4-15.5c-3-4.1-7-7.3-11.1-10.3c-9.6-6.9-20.1-12.6-30.7-17.6c-6.5-3-13.1-5.7-19.8-8.1
				c-1.4-0.5-5.5,0-5.2,2.2c1.8,13.5,3.6,27.4,9.7,39.7c5.1,10.3,13,19,22.6,25.3c5.4,3.6,11.3,6.3,17.5,8.3
				c-0.3-0.6-0.6-1.1-0.9-1.7c-6.3,9.4-15.5,16.5-26.7,18.5c-1.8,0.3-3.7,0.7-5.6,0.9c-1.1,0.2-2.2,0.3-3.3,0.4
				c-0.3,0-0.6,0-0.8,0.1c-0.5,0,0.3,0-0.4,0c-0.6,0-1.3,0-1.9,0c-15.8-0.2-29.9-10.4-40.8-21.3c-11.5-11.5-20.2-25.1-30-38
				c-0.1,0.6-0.2,1.1-0.4,1.7c4.4-4.7,7.2-10.4,9.3-16.5c1.9-5.8,3.4-12.3-1.8-16.8c-4.9-4.3-11.8-4.4-17.8-3.2
				c-7,1.3-13.8,4-20.1,7.4c1.4-0.2,2.7-0.3,4.1-0.5c-15.2-9.2-33-13-50.6-13.6c-14.7-0.5-29.9,1-44,5.4c-6.6,2.1-12.7,5.2-18.7,8.8
				c1.4-0.2,2.7-0.3,4.1-0.5c-2.8-1.8-5.9-3.2-8.9-4.7c-3.1-1.6-6.2-3.2-9.6-4c-6.3-1.6-13.2,0-17.4,5.2c-3.7,4.6-4.6,10.9-4.5,16.7
				c0,7.4,1.8,14.7,5,21.3c0.1-0.3,0.1-0.6,0.2-0.9c-9.2,16.8-13.7,35.9-13.6,55c0.1,19.6,5.2,39.1,15.3,55.9
				c5.9,9.9,13.6,18.6,22.6,25.8c0.5-0.8,1-1.6,1.5-2.4c-5.8,2.9-10.9,6.7-15.7,11c-4.6,4.1-8.8,8.6-12.1,13.8
				c-6.5,10.4-9.5,22.6-11.6,34.5c-0.2,1.3,1.7,1.5,2.5,1.3c27.6-5.2,54.2-18,71.1-41.1c-1.7,0.4-3.3,0.9-5,1.3
				c16.6,7.8,34.4,13.4,52.5,16.4c1.1,0.2,2.5,0.2,3.6,0.5c-0.1-0.1-0.1-0.2-0.2-0.3c0.1,0.2,0.3,0.3,0.4,0.5
				c0.4,0.4,0.7,0.9,1.1,1.3c1.5,1.7,3,3.3,4.5,4.9c3.1,3.1,6.4,5.9,9.9,8.6c6.9,5.2,14.4,9.5,22.4,12.9c9.3,4,19.1,6.8,29.1,8.7
				c1.3,0.2,5-0.4,4.7-2.4c-2.3-12.7-5.5-25.3-12.9-36.1c-1,0.9-2,1.9-3.1,2.8c19.8-1.6,39.1-6.3,56.8-15.5c25-13,44.6-34,59.6-57.6
				c12.3-19.3,21.7-40.2,29.5-61.7c-1.3,0.7-2.7,1.4-4,2c12.8,0.1,25.6-3.2,36.8-9.4c11.5-6.4,20.3-15.9,26.9-27.1
				c3.9-6.7,7.2-13.8,10.4-20.9c0.7-1.6-1.2-1.8-2.3-1.7C388.5,111.1,371.7,114,355.3,118.6c-0.9,0.2-2.8,1-2.5,2.3
				c0.3,1.2,2.5,1,3.3,0.7c15.9-4.5,32.2-7.2,48.7-8.1c-0.8-0.6-1.5-1.2-2.3-1.7c-5.2,11.5-10.5,23.1-18.7,32.8
				c-7.4,8.8-17.6,15.2-28.5,18.6c-6.2,1.9-12.7,2.9-19.3,2.9c-1.4,0-3.5,0.5-4,2c-12.1,33.4-28.5,66.7-53.8,92.2
				c-16,16-35.5,28-56.9,33.8c-9.5,2.6-18.5,4-28.6,4.7c-1.1,0.1-4.1,1.2-3.1,2.8c7.1,10.5,10.2,23,12.5,35.3
				c1.6-0.8,3.1-1.6,4.7-2.4c-17.3-3.2-34.3-9.4-48.6-19.8c-3.4-2.5-6.7-5.2-9.7-8.2c-1.4-1.4-2.8-2.8-4.2-4.3
				c-1.1-1.2-2.4-3.6-4-4.1c-2-0.6-4.3-0.6-6.4-1c-2.4-0.4-4.7-0.9-7.1-1.4c-4.5-0.9-8.9-2-13.3-3.3c-10-2.9-19.7-6.5-29-11
				c-1.5-0.7-4,0-5,1.3c-15.4,21.1-39.7,33.2-64.9,38c0.8,0.4,1.7,0.9,2.5,1.3c2-11.2,4.6-22.6,10.5-32.5c3-5,6.7-9.3,11-13.2
				c4.4-4,9.1-7.9,14.4-10.5c0.6-0.3,2.6-1.5,1.5-2.4c-21.5-17.2-34.2-42.8-36.9-70c-1.3-13.1-0.3-26.4,2.9-39.1
				c1.6-6.3,3.7-12.4,6.3-18.3c0.6-1.4,1.3-2.7,2-4.1c0.3-0.7,0.7-1.3,1.1-2c0.7-1.3,0.6-1.4-0.1-2.8c-1.9-4-3.1-8.3-3.8-12.7
				c-0.7-4.6-0.9-9.4,0-14c0.7-3.5,2-7.5,5-9.8c3.6-2.7,8.7-0.4,12.3,1.3c4.1,2,8.3,3.9,12.1,6.4c1.1,0.7,3.1,0.1,4.1-0.5
				c2.6-1.5,5.2-2.8,7.8-4.3c0.9-0.5,1.8-1,3.3-1.6c3.3-1.4,6.5-2.3,10.3-3.2c9.9-2.4,20.1-3.5,30.3-3.6c11.9-0.1,23.9,1.4,35.3,5
				c5.8,1.8,11.5,4.3,16.8,7.4c1.6,0.9,2.9,1.3,4.7,0.6c1.9-0.8,3.6-1.9,5.5-2.7c3.4-1.5,7-2.7,10.6-3.5c3.9-0.9,8.2-1.1,11.8,0.9
				c3.4,1.9,5.3,5.4,4.9,9.3c-0.4,3.9-2,8-3.5,11.6c-1.6,3.7-3.7,7.3-6.4,10.2c-0.5,0.5-0.8,1-0.4,1.7
				c15.2,20.2,29.4,43.9,53.1,55.3c6.2,3,13,4.9,20,5.1c4.7,0.1,9.3-0.5,14-1.4c6.2-1.1,11.9-3,17.3-6.3c6.3-3.9,11.8-9.3,15.9-15.4
				c0.6-0.9-0.2-1.5-0.9-1.7c-10.6-3.3-20.2-9.5-27.8-17.6c-8.3-8.9-13.3-19.8-16.1-31.7c-1.7-7.4-2.7-14.9-3.7-22.4
				c-1.7,0.7-3.5,1.5-5.2,2.2c11.4,4.1,22.5,9.1,33.1,15c9.1,5.1,19.1,10.6,26.1,18.5c4.3,4.9,6.1,10.4,6.7,16.7
				c0.1,1.1,2.3,0.9,2.9,0.8c1.2-0.2,2.4-0.8,2.9-1.9c2.5-6,6.2-10.3,11.9-13.5c4.9-2.7,10.3-4.3,15.6-5.9c0.9-0.2,2.8-1,2.5-2.3
				C358.2,118.1,356.1,118.3,355.3,118.6z"/>
		</g>
	</g>
</g>
<g id="Face">
	<g>
		<path class="st1" d="M34.5,155.6c-10.1,36.1,22.7,54.9,41.7,32.7C106.2,150.1,51.7,105.2,34.5,155.6z"/>
		<g>
			<path d="M33.1,155.7c-3.7,13.5-2.2,30.2,10.2,38.9c4.7,3.3,10.5,4.8,16.2,4.2c6.5-0.7,12.4-4.1,16.8-8.8
				c4.9-5.1,8.2-12.2,9.6-19.1c1.1-5.9,0.8-12.1-1.2-17.8c-3.4-9.9-11.6-18.8-22.2-20.7c-5-0.9-10.3,0.1-14.6,2.6
				c-5.7,3.3-9.7,8.9-12.5,14.7c-0.9,1.8-1.6,3.7-2.3,5.6c-0.5,1.6,2.4,1.5,2.8,0.3c3.5-10,10.6-22,22.7-21.6
				c9.6,0.3,17.8,7.9,21.8,16.2c5.2,11.1,3.6,23.7-2.8,33.9c-3.4,5.3-8.2,9.8-14.3,11.7c-5,1.5-10.4,1-15-1.4
				c-12-6.1-15.5-20.6-13.6-33c0.3-2.1,0.8-4.1,1.3-6.1C36.4,154.1,33.4,154.5,33.1,155.7z"/>
		</g>
	</g>
	<g>
		<path class="st1" d="M108.2,161.4c-2.6,45.5,52.7,57.6,57.6,9.6C167.3,130.2,112.1,114.9,108.2,161.4z"/>
		<g>
			<path d="M106.7,161.5c-0.8,14.3,4.4,29.6,17.4,37.2c10.6,6.2,24.1,5.3,33-3.5c5.3-5.3,8.2-12.6,9.5-19.8
				c1.4-7.7,0.4-15.7-2.9-22.8c-5.3-11.4-16.6-20.3-29.5-20.7c-5.9-0.2-11.9,1.6-16.5,5.4c-5.5,4.5-8.6,11-10.1,17.9
				C107.2,157.1,106.9,159.3,106.7,161.5c-0.1,1.5,2.8,1.1,2.9-0.2c0.6-7.1,2.5-14.4,7.2-20c3.4-4.1,8.2-6.7,13.4-7.3
				c11.6-1.3,22.8,6,28.7,15.6c3.6,5.9,5.4,12.8,5.5,19.6c0,4.1-0.9,8.3-2.1,12.1c-1,3.2-2.5,6.4-4.4,9.2c-3.2,4.6-7.8,8.1-13.2,9.4
				c-5.1,1.3-10.5,0.6-15.3-1.5c-12.3-5.3-18.9-18.4-19.7-31.2c-0.1-2-0.1-4,0-6C109.7,159.8,106.8,160.2,106.7,161.5z"/>
		</g>
	</g>
	<g>
		<path class="st2" d="M104.5,197.1c-5.1-0.9-10.7-0.6-15.7,0.8c-2.8,0.8-5.3,2.4-7.7,4.4c-2.4,2-4.2,5.1-4.1,8.6
			c0.1,3.2,2,6.1,4.4,7.8c2.4,1.7,5.2,2.3,7.9,2.7c7.6,0.9,14.1,0.9,21.6-0.8c2.1-0.5,5.3-2.3,6.7-4.2c2.3-3.4,0.7-8.9-1.5-11.9
			C113.1,200.4,109,197.9,104.5,197.1z"/>
		<g>
			<path d="M105,196c-4.2-0.7-8.5-0.7-12.7,0c-4.2,0.7-7.7,2.2-11.1,4.7c-3,2.3-5.4,5.5-5.6,9.4c-0.2,3.5,1.6,6.9,4.3,9.1
				c3.2,2.5,7.4,3.1,11.4,3.5c4.3,0.4,8.6,0.5,12.9,0c3.9-0.4,7.9-0.9,11.2-3c3-1.8,5-4.4,4.8-8C119.8,203.6,112.6,197.4,105,196
				c-1.5-0.3-2.9,1.8-1,2.2c5.8,1.1,11.2,5.4,12.8,11.3c0.8,2.9,0.6,5.8-1.9,7.8c-2.6,2.1-5.8,2.6-9,3c-3.6,0.5-7.3,0.6-10.9,0.4
				c-3.4-0.2-7-0.4-10.1-1.6c-2.9-1.2-5.3-3.6-6.1-6.7c-0.8-3.2,0.5-6.6,2.8-8.9c5.9-5.7,14.7-6.6,22.5-5.3
				C105.5,198.5,106.9,196.3,105,196z"/>
		</g>
	</g>
	<path class="st3" d="M91.9,195.6c-2.5,1.9-4.1,5.8-3.3,9.2c0.2,0.7,0.4,1.3,0.8,1.8c0.4,0.5,0.8,0.8,1.3,1.1
		c4.5,2.8,9.9,2.5,14.8,1c0.6-0.2,1.2-0.4,1.8-0.8c1.8-1.2,2.5-4.1,2-6.6s-2-4.4-3.8-5.6C101.7,193.3,95.7,192.7,91.9,195.6z"/>
	<g>
		<path class="st4" d="M90.1,219.7c-1.6,0.3-2.7,1.5-2.6,5c0,1.5,0,3.1,0,4.6c-0.1,1.5,0.3,3.4,1.8,3.5c4.6,0.1,9.1,0.2,13.7,0.3
			c1.9,0,3.6-1.5,4.3-3.4c0.9-2.3,0.7-5.1,0-7.4c-1.1-2.8-3.8-2.9-5-2.9C99.7,219.4,91.3,219.4,90.1,219.7z"/>
		<g>
			<path d="M89.8,218.8c-1.7,0.4-3.1,1.5-3.6,3.2c-0.4,1.2-0.3,2.5-0.3,3.7c0,1.5-0.1,3,0,4.5c0.1,1,0.3,2,1,2.7
				c0.9,1,2.3,0.8,3.5,0.8c3.3,0.1,6.5,0.1,9.8,0.2c1.4,0,2.9,0.2,4.2-0.2c1.2-0.4,2.2-1.1,3-2.1c1.7-2.1,2-4.9,1.7-7.6
				c-0.3-2.3-1.2-4.4-3.5-5.3c-1.4-0.5-2.8-0.5-4.3-0.5c-2.2,0-4.4,0-6.7,0.1C93.1,218.5,91.4,218.5,89.8,218.8
				c-0.5,0.1-1.4,0.6-1.2,1.3c0.2,0.7,1.2,0.6,1.7,0.5c-0.6,0.1,0,0,0.1,0c0.2,0,0.5,0,0.7,0c0.7,0,1.4-0.1,2.1-0.1
				c1.6,0,3.2-0.1,4.7-0.1c1.3,0,2.6,0,3.8,0c1.1,0,2.3,0.2,3.2,1c1.5,1.4,1.6,4.2,1.4,6.1c-0.2,1.6-0.8,4.2-2.7,4.6
				c-1.1,0.2-2.5,0-3.7,0c-1.3,0-2.6-0.1-3.9-0.1c-1.3,0-2.6-0.1-3.9-0.1c-0.9,0-2.4,0.4-2.9-0.6c-0.5-0.9-0.3-2-0.4-2.9
				c0-1.5-0.1-3,0-4.5c0-0.8,0.1-1.8,0.5-2.6c0.3-0.5,0.5-0.6,0.9-0.7c0.5-0.1,1.4-0.6,1.2-1.3C91.3,218.6,90.3,218.7,89.8,218.8z"
				/>
		</g>
	</g>
	<g>
		<g>
			<path class="st5" d="M47.9,161.4c-4.9,1.8-5.7,10-5.5,11.8c0.2,1.8,0.5,3.7,1.2,5.3c0.7,1.4,1.7,2.6,2.7,3.7
				c0.7,0.8,1.5,1.5,2.4,2c1.3,0.7,2.7,0.9,4.1,0.8c3.5-0.2,6.8-2.2,8.9-5.4c2-3.2,2.6-7.6,1.5-11.3
				C61.1,161.3,53.7,159.2,47.9,161.4z"/>
			<ellipse class="st6" cx="50.5" cy="168.1" rx="3.8" ry="4.4"/>
		</g>
		<g>
			<path class="st5" d="M124.2,164.2c-5.3,4.4-6,14.8-1.8,20.6c4.1,5.7,16.3,6.6,19.5-5C144.8,164.3,129.9,159.1,124.2,164.2z"/>
			<ellipse class="st6" cx="125.9" cy="171.4" rx="3.5" ry="4"/>
		</g>
	</g>
</g>
</svg>
